<svg xmlns="http://www.w3.org/2000/svg" width="93" height="93" viewBox="0 0 93 93" fill="none"> <path d="M21.162 65.9885C19.6293 67.2134 17.377 66.9723 16.3112 65.3249C13.3353 60.725 11.4545 55.4844 10.837 50.0084C10.0864 43.352 11.233 36.6189 14.1447 30.5862C17.0563 24.5534 21.6143 19.4668 27.2926 15.9132C32.971 12.3596 39.5384 10.4839 46.237 10.5024C52.9356 10.5209 59.4925 12.433 65.1511 16.0179C70.8097 19.6029 75.3395 24.7147 78.2177 30.7635C81.0959 36.8122 82.2053 43.5515 81.4179 50.2037C80.7701 55.6762 78.8603 60.9063 75.8589 65.4897C74.784 67.1311 72.5304 67.3598 71.0045 66.1264C69.4786 64.8931 69.2631 62.6659 70.2966 60.9981C72.4782 57.4776 73.8718 53.5098 74.362 49.3685C74.992 44.0468 74.1045 38.6553 71.8019 33.8163C69.4993 28.9773 65.8755 24.8879 61.3486 22.0199C56.8217 19.1519 51.5762 17.6223 46.2173 17.6074C40.8584 17.5926 35.6045 19.0932 31.0619 21.9361C26.5192 24.779 22.8728 28.8483 20.5435 33.6745C18.2142 38.5007 17.2968 43.8871 17.8973 49.2123C18.3646 53.3562 19.7362 57.3317 21.8983 60.8642C22.9225 62.5376 22.6947 64.7636 21.162 65.9885Z" fill="#E8E8EE"></path> <path d="M21.162 65.9885C19.6293 67.2134 17.3771 66.9723 16.3113 65.325C14.0235 61.7887 12.3774 57.8655 11.4595 53.7356C10.284 48.4469 10.3337 42.9594 11.6048 37.6929C12.8759 32.4264 15.3347 27.5203 18.7931 23.35C22.2516 19.1797 26.618 15.8557 31.5584 13.6321C36.4989 11.4086 41.8824 10.3445 47.2973 10.5211C52.7122 10.6978 58.0149 12.1107 62.7999 14.6516C67.5848 17.1924 71.7253 20.7941 74.9045 25.181C77.3871 28.6066 79.2322 32.4402 80.362 36.4977C80.8884 38.3878 79.5753 40.2335 77.6421 40.5685C75.7089 40.9035 73.8916 39.598 73.3182 37.7217C72.4034 34.728 70.9978 31.8981 69.1513 29.3503C66.608 25.8408 63.2956 22.9595 59.4676 20.9268C55.6397 18.8941 51.3975 17.7638 47.0656 17.6225C42.7337 17.4811 38.4268 18.3324 34.4745 20.1112C30.5221 21.8901 27.029 24.5493 24.2622 27.8856C21.4955 31.2218 19.5285 35.1466 18.5116 39.3599C17.4947 43.5731 17.455 47.9631 18.3953 52.194C19.078 55.2656 20.2642 58.1943 21.8983 60.8642C22.9226 62.5377 22.6947 64.7636 21.162 65.9885Z" fill="#65A4FE"></path> </svg>