<svg xmlns="http://www.w3.org/2000/svg" width="93" height="93" viewBox="0 0 93 93" fill="none"> <path d="M21.4388 65.9885C19.9061 67.2134 17.6538 66.9723 16.588 65.3249C13.6121 60.725 11.7313 55.4844 11.1138 50.0084C10.3632 43.352 11.5098 36.6189 14.4215 30.5862C17.3331 24.5534 21.8911 19.4668 27.5694 15.9132C33.2478 12.3596 39.8152 10.4839 46.5138 10.5024C53.2124 10.5209 59.7693 12.433 65.4279 16.0179C71.0865 19.6029 75.6163 24.7147 78.4945 30.7635C81.3727 36.8122 82.4821 43.5515 81.6946 50.2037C81.0469 55.6762 79.1371 60.9063 76.1357 65.4897C75.0608 67.1311 72.8072 67.3598 71.2813 66.1264C69.7554 64.8931 69.5399 62.6659 70.5734 60.9981C72.755 57.4776 74.1486 53.5098 74.6388 49.3685C75.2688 44.0468 74.3812 38.6553 72.0787 33.8163C69.7761 28.9773 66.1523 24.8879 61.6254 22.0199C57.0985 19.1519 51.853 17.6223 46.4941 17.6074C41.1352 17.5926 35.8813 19.0932 31.3386 21.9361C26.796 24.779 23.1496 28.8483 20.8203 33.6745C18.491 38.5007 17.5736 43.8871 18.1741 49.2123C18.6414 53.3562 20.013 57.3317 22.1751 60.8642C23.1993 62.5376 22.9715 64.7636 21.4388 65.9885Z" fill="#E8E8EE"></path> <path d="M21.4388 65.9885C19.9061 67.2134 17.6539 66.9723 16.5881 65.325C14.7054 62.415 13.2552 59.2396 12.2887 55.8979C10.9925 51.4164 10.5918 46.7233 11.1093 42.0869C11.6268 37.4504 13.0525 32.9612 15.3049 28.8757C16.9844 25.8294 19.0991 23.052 21.5771 20.6287C22.9798 19.2569 25.2298 19.5184 26.4547 21.051C27.6796 22.5837 27.411 24.8051 26.043 26.2116C24.2758 28.0284 22.7558 30.0773 21.527 32.3061C19.7251 35.5745 18.5845 39.1659 18.1705 42.875C17.7565 46.5842 18.0771 50.3386 19.1141 53.9239C19.8212 56.3688 20.852 58.7025 22.1751 60.8642C23.1994 62.5377 22.9715 64.7636 21.4388 65.9885Z" fill="#65A4FE"></path> </svg>